<svg width="150" height="150" viewBox="0 0 150 150" fill="none" xmlns="http://www.w3.org/2000/svg">
<path d="M75 150C116.4 150 150 116.4 150 75C150 33.6 116.4 0 75 0C33.6 0 0 33.6 0 75C0 116.4 33.6 150 75 150Z" fill="#FBD965"/>
<path d="M78 139C78 139.25 77.85 139.4 77.6 139.4L74.1 139.35C71.65 139.3 70.2 137.6 70.25 134.95L70.4 123.15C70.45 120.5 71.95 118.8 74.35 118.85L77.85 118.9C78.1 118.9 78.25 119.05 78.25 119.3L78 139ZM74.95 121.55H74.3C73.4 121.55 73.25 122.2 73.25 123.8L73.1 134.3C73.1 135.9 73.25 136.55 74.1 136.6H74.75C75 136.6 75.15 136.45 75.15 136.2L75.35 122C75.35 121.75 75.2 121.55 74.95 121.55Z" fill="#171C8F"/>
<path d="M67.65 118.65L63.75 137.95C63.7 138.2 63.55 138.3 63.25 138.25L61.25 137.85C61 137.8 60.9 137.6 60.95 137.35L64.85 118.05C64.9 117.8 65.05 117.65 65.35 117.75L67.35 118.15C67.55 118.2 67.7 118.4 67.65 118.65Z" fill="#171C8F"/>
<path d="M61.8 117.35L54.4 135.6C54.3 135.85 54.1 135.95 53.85 135.85L50.6 134.55C48.45 133.7 47.6 131.5 48.6 129.05L49.95 125.7C50.5 124.35 51.3 123.55 52.3 123.1C52.45 123 52.6 122.9 52.65 122.7L54.55 114.65C54.65 114.2 54.85 114.15 55.05 114.25L56.9 115C57.15 115.1 57.25 115.25 57.15 115.65L55.35 122.75C55.3 123 55.35 123.2 55.6 123.3L55.8 123.4C56.05 123.5 56.25 123.4 56.35 123.15L59.1 116.3C59.2 116.05 59.4 115.95 59.65 116.05L61.55 116.8C61.8 116.9 61.85 117.15 61.8 117.35ZM54.2 125.65C53.5 125.35 53 125.9 52.4 127.35L51.5 129.5C50.9 130.95 50.95 131.7 51.6 132L52.2 132.25C52.45 132.35 52.65 132.25 52.75 132L55 126.4C55.1 126.15 55 125.95 54.75 125.85L54.2 125.65Z" fill="#171C8F"/>
<path d="M41.5 129.5C41.35 129.7 41.15 129.75 40.95 129.6L36.85 126.8C36.65 126.65 36.6 126.45 36.75 126.25L37.75 124.8C37.9 124.6 38.1 124.55 38.3 124.7L40 125.85C40.2 126 40.45 125.95 40.55 125.75L43.6 121.2C43.75 121 43.7 120.75 43.5 120.65L41.8 119.5C41.6 119.35 41.55 119.15 41.7 118.95L42.7 117.5C42.85 117.3 43.05 117.25 43.25 117.4L44.95 118.55C45.15 118.7 45.4 118.65 45.5 118.45L48.7 113.75C48.85 113.55 48.8 113.3 48.6 113.2L46.9 112.05C46.7 111.9 46.65 111.7 46.8 111.5L47.8 110.05C47.95 109.85 48.15 109.8 48.35 109.95L52.45 112.75C52.65 112.9 52.7 113.1 52.55 113.3L41.5 129.5Z" fill="#171C8F"/>
<path d="M34.4 119.5C32.5 121.35 30.25 121.45 28.55 119.7C26.85 117.95 27.05 115.7 28.95 113.85L30.55 112.3C30.75 112.15 30.95 112.15 31.15 112.3L32.55 113.8C32.7 114 32.7 114.2 32.55 114.4L31.4 115.5C30.25 116.6 29.9 117.2 30.5 117.85C31.1 118.5 31.7 118.1 32.85 117L40.6 109.5C41.75 108.4 42.1 107.8 41.5 107.15C40.9 106.55 40.3 106.9 39.15 108L38 109.1C37.8 109.25 37.6 109.25 37.4 109.1L36 107.6C35.85 107.4 35.85 107.2 36 107L37.6 105.45C39.5 103.6 41.75 103.5 43.45 105.25C45.15 107 44.95 109.25 43.05 111.1L34.4 119.5Z" fill="#171C8F"/>
<path d="M22.8 112C22.6 112.15 22.35 112.1 22.25 111.85L19.05 106.8C18.9 106.6 18.95 106.4 19.2 106.25L20.8 105.25C21 105.1 21.25 105.15 21.35 105.4L22 106.4C22.15 106.6 22.35 106.65 22.55 106.55L36.9 97.5C37.1 97.35 37.3 97.4 37.45 97.65L38.55 99.4C38.7 99.6 38.65 99.85 38.4 99.95L24.05 109C23.85 109.15 23.8 109.35 23.9 109.55L24.5 110.5C24.65 110.7 24.6 110.9 24.35 111.05L22.8 112Z" fill="#171C8F"/>
<path d="M20.05 99.65C17.55 100.55 15.45 99.8 14.6 97.5C13.75 95.2 14.85 93.25 17.3 92.3L28.65 88.1C31.15 87.2 33.25 87.95 34.1 90.25C34.95 92.55 33.85 94.5 31.4 95.45L20.05 99.65ZM31.55 91.2C31.25 90.4 30.55 90.45 29.05 91L18.95 94.75C17.45 95.3 16.9 95.7 17.2 96.5C17.5 97.3 18.2 97.25 19.7 96.7L29.8 92.95C31.25 92.45 31.85 92.05 31.55 91.2Z" fill="#171C8F"/>
<path d="M31.65 84.2L12.1 86.7C11.85 86.75 11.7 86.6 11.65 86.35L11.2 82.9C10.9 80.6 12.4 78.8 15 78.45L18.6 78C20.05 77.8 21.15 78.1 22 78.8C22.15 78.9 22.3 78.95 22.55 78.9L30.5 76.6C30.95 76.5 31.1 76.6 31.1 76.85L31.35 78.85C31.4 79.1 31.3 79.3 30.9 79.4L23.8 81.3C23.55 81.35 23.4 81.5 23.45 81.75L23.5 81.95C23.55 82.2 23.7 82.35 23.95 82.3L31.3 81.35C31.55 81.3 31.7 81.45 31.75 81.7L32 83.75C32.05 84 31.9 84.2 31.65 84.2ZM20.7 81.7C20.6 80.95 19.9 80.75 18.3 80.95L16 81.25C14.45 81.45 13.8 81.85 13.9 82.55L14 83.15C14.05 83.4 14.2 83.55 14.45 83.5L20.4 82.75C20.65 82.7 20.8 82.55 20.75 82.3L20.7 81.7Z" fill="#171C8F"/>
<path d="M30.9 72.65L24 72.05C23.9 72.05 23.75 72.05 23.65 72.05L11.1 73.4C10.85 73.45 10.7 73.3 10.7 73.05L10.9 70.85C10.9 70.65 11.1 70.5 11.35 70.5L18.75 70.2C18.9 70.2 18.9 69.95 18.75 69.95L11.5 68.4C11.25 68.35 11.1 68.15 11.1 68L11.3 65.8C11.3 65.6 11.5 65.45 11.75 65.55L23.9 69.05C24 69.1 24.15 69.1 24.25 69.1L31.15 69.7C31.4 69.7 31.55 69.9 31.5 70.15L31.3 72.3C31.3 72.55 31.1 72.7 30.9 72.65Z" fill="#171C8F"/>
<path d="M17.95 46.1C17.75 46 17.65 45.75 17.8 45.55L19.55 42.55C20.8 40.45 23 40.05 25.3 41.35L35.5 47.3C37.8 48.65 38.5 50.75 37.3 52.85L35.55 55.85C35.45 56.05 35.2 56.1 35 56L17.95 46.1ZM34.6 52.05L34.95 51.5C35.4 50.75 34.9 50.25 33.5 49.45L24.4 44.15C23.05 43.35 22.35 43.15 21.9 43.9L21.6 44.5C21.5 44.7 21.55 44.9 21.75 45.05L34.05 52.2C34.25 52.3 34.45 52.3 34.6 52.05Z" fill="#171C8F"/>
<path d="M40.75 47.1501L25.9 34.2001C25.7 34.0501 25.7 33.85 25.85 33.6L27.2 32.05C27.35 31.85 27.6 31.85 27.8 32L42.65 44.9501C42.85 45.1001 42.85 45.3001 42.7 45.5501L41.35 47.1001C41.2 47.2501 40.95 47.3001 40.75 47.1501Z" fill="#171C8F"/>
<path d="M44.75 42.65L32.5 27.25C32.35 27.05 32.35 26.85 32.55 26.65L35.3 24.45C37.1 23 39.4 23.35 41.05 25.4L43.3 28.25C44.2 29.4 44.5 30.45 44.4 31.55C44.4 31.7 44.4 31.9 44.6 32.05L50.65 37.65C50.95 37.95 50.95 38.15 50.75 38.3L49.2 39.55C49 39.7 48.8 39.75 48.5 39.45L43.25 34.45C43.1 34.25 42.85 34.25 42.65 34.4L42.5 34.5C42.3 34.65 42.3 34.9 42.45 35.1L47 40.85C47.15 41.05 47.15 41.25 46.95 41.45L45.35 42.75C45.15 42.85 44.95 42.85 44.75 42.65ZM41.3 32C41.9 31.55 41.7 30.8 40.7 29.6L39.25 27.8C38.25 26.55 37.6 26.2 37 26.65L36.5 27.05C36.3 27.2 36.3 27.45 36.45 27.65L40.2 32.35C40.35 32.55 40.6 32.55 40.8 32.4L41.3 32Z" fill="#171C8F"/>
<path d="M44.15 19.05C44.05 18.85 44.1 18.6 44.35 18.5L48.8 16.3C49 16.2 49.25 16.25 49.35 16.5L50.15 18.05C50.25 18.25 50.2 18.5 49.95 18.6L48.05 19.5C47.85 19.6 47.75 19.85 47.85 20.05L50.3 24.95C50.4 25.15 50.65 25.25 50.85 25.15L52.7 24.25C52.9 24.15 53.15 24.2 53.25 24.45L54.05 26C54.15 26.2 54.1 26.45 53.85 26.55L52 27.45C51.8 27.55 51.7 27.8 51.8 28L54.35 33.1C54.45 33.3 54.7 33.4 54.9 33.3L56.75 32.4C56.95 32.3 57.2 32.35 57.3 32.6L58.1 34.15C58.2 34.35 58.15 34.6 57.9 34.7L53.45 36.9C53.25 37 53 36.95 52.9 36.7L44.15 19.05Z" fill="#171C8F"/>
<path d="M56.4 17.8001C55.75 15.2501 56.75 13.2001 59.1 12.6001C61.45 12.0001 63.3 13.2501 63.95 15.8501L64.5 18.0001C64.55 18.2501 64.45 18.4501 64.2 18.5001L62.2 19.0001C61.95 19.0501 61.75 18.9501 61.7 18.7001L61.3 17.1501C60.9 15.6001 60.55 15.0001 59.75 15.2001C58.9 15.4001 58.9 16.1001 59.3 17.6501L61.95 28.1001C62.35 29.6501 62.65 30.2501 63.5 30.0501C64.3 29.8501 64.35 29.1501 63.95 27.6001L63.55 26.0501C63.5 25.8001 63.6 25.6001 63.85 25.5501L65.85 25.0501C66.1 25.0001 66.3 25.1001 66.35 25.3501L66.9 27.5001C67.55 30.0501 66.55 32.1001 64.2 32.7001C61.85 33.3001 60 32.0501 59.35 29.4501L56.4 17.8001Z" fill="#171C8F"/>
<path d="M68.65 11.4C68.65 11.15 68.8 11 69.05 10.95L75.05 10.65C75.3 10.65 75.45 10.75 75.5 11.05L75.6 12.95C75.6 13.2 75.45 13.35 75.2 13.4L74 13.45C73.75 13.45 73.6 13.65 73.6 13.9L74.4 30.85C74.4 31.1 74.3 31.25 74 31.3L71.95 31.4C71.7 31.4 71.55 31.25 71.5 31L70.7 14.05C70.7 13.8 70.5 13.65 70.25 13.65L69.15 13.7C68.9 13.7 68.75 13.6 68.7 13.3L68.65 11.4Z" fill="#171C8F"/>
<path d="M80.65 15.1C81.05 12.5 82.8 11.05 85.2 11.4C87.6 11.8 88.8 13.7 88.4 16.3L86.5 28.3C86.1 30.9 84.35 32.35 81.95 32C79.55 31.6 78.35 29.7 78.75 27.1L80.65 15.1ZM82.35 29.25C83.2 29.4 83.5 28.75 83.75 27.15L85.45 16.5C85.7 14.95 85.65 14.25 84.8 14.1C83.95 13.95 83.65 14.6 83.4 16.2L81.7 26.85C81.45 28.4 81.5 29.1 82.35 29.25Z" fill="#171C8F"/>
<path d="M88.45 32.8L95.9 14.55C96 14.3 96.2 14.2 96.45 14.35L99.7 15.7C101.85 16.55 102.7 18.75 101.65 21.2L100.3 24.55C99.75 25.9 98.95 26.7 97.95 27.15C97.8 27.25 97.65 27.35 97.6 27.55L95.65 35.6C95.55 36.05 95.35 36.1 95.15 36L93.3 35.25C93.05 35.15 92.95 35 93.05 34.6L94.9 27.5C94.95 27.25 94.9 27.05 94.7 26.95L94.5 26.85C94.25 26.75 94.05 26.85 93.95 27.05L91.15 33.9C91.05 34.15 90.85 34.25 90.6 34.1L88.7 33.3C88.45 33.25 88.35 33 88.45 32.8ZM96.05 24.55C96.75 24.85 97.25 24.3 97.85 22.85L98.7 20.7C99.3 19.25 99.3 18.5 98.6 18.2L98 17.95C97.75 17.85 97.55 17.95 97.45 18.15L95.15 23.7C95.05 23.95 95.15 24.15 95.35 24.25L96.05 24.55Z" fill="#171C8F"/>
<path d="M98.85 37.8L102.8 32.1C102.85 32 102.95 31.9 103 31.8L108 20.2C108.1 19.95 108.3 19.9 108.5 20.05L110.3 21.3C110.45 21.4 110.5 21.65 110.4 21.85L107 28.4C106.95 28.55 107.15 28.65 107.25 28.55L112.2 23.05C112.35 22.85 112.6 22.8 112.75 22.95L114.55 24.2C114.75 24.3 114.75 24.55 114.55 24.7L105.5 33.5C105.4 33.55 105.35 33.7 105.25 33.8L101.3 39.5C101.15 39.7 100.95 39.75 100.75 39.6L98.95 38.35C98.75 38.25 98.7 38 98.85 37.8Z" fill="#171C8F"/>
<path d="M128.35 39.65C128.55 39.55 128.75 39.55 128.9 39.8L130.65 42.85C131.9 44.95 131.15 47.1 128.85 48.4L118.65 54.35C116.35 55.7 114.15 55.25 112.9 53.15L111.15 50.1C111.05 49.9 111.1 49.65 111.3 49.55L128.35 39.65ZM114.95 51.2L115.3 51.75C115.75 52.5 116.4 52.3 117.8 51.5L126.9 46.2C128.25 45.4 128.8 44.9 128.35 44.15L128 43.6C127.9 43.4 127.65 43.35 127.45 43.5L115.15 50.65C114.9 50.8 114.85 51 114.95 51.2Z" fill="#171C8F"/>
<path d="M116.25 59L134.85 52.45C135.1 52.35 135.3 52.45 135.35 52.7L136.05 54.65C136.15 54.9 136.05 55.1 135.8 55.15L117.2 61.7C116.95 61.8 116.75 61.7 116.7 61.45L116 59.5C115.9 59.3 116 59.1 116.25 59Z" fill="#171C8F"/>
<path d="M118.1 64.65L137.55 61.6C137.8 61.55 138 61.65 138 61.95L138.55 65.4C138.9 67.65 137.5 69.55 134.85 69.95L131.3 70.5C129.85 70.7 128.75 70.45 127.85 69.8C127.7 69.7 127.55 69.65 127.3 69.7L119.4 72.2C119 72.3 118.8 72.2 118.8 71.95L118.5 70C118.45 69.75 118.55 69.55 118.95 69.45L126 67.35C126.25 67.3 126.4 67.1 126.35 66.9L126.3 66.7C126.25 66.45 126.05 66.3 125.85 66.35L118.55 67.5C118.3 67.55 118.1 67.45 118.1 67.15L117.8 65.1C117.75 64.9 117.9 64.7 118.1 64.65ZM129.15 66.9C129.25 67.65 130 67.8 131.55 67.6L133.8 67.25C135.35 67 136 66.6 135.9 65.85L135.8 65.25C135.75 65 135.55 64.85 135.35 64.9L129.4 65.85C129.15 65.9 129 66.1 129.05 66.3L129.15 66.9Z" fill="#171C8F"/>
<path d="M138.95 75.8C139.2 75.8 139.35 75.95 139.35 76.25L139.1 81.2C139.1 81.45 138.9 81.6 138.65 81.6L136.9 81.5C136.65 81.5 136.5 81.3 136.5 81.05L136.6 78.95C136.6 78.7 136.45 78.55 136.2 78.5L130.75 78.2C130.5 78.2 130.35 78.35 130.3 78.6L130.2 80.7C130.2 80.95 130 81.1 129.75 81.1L128 81C127.75 81 127.6 80.8 127.6 80.55L127.7 78.45C127.7 78.2 127.55 78.05 127.3 78L121.6 77.7C121.35 77.7 121.2 77.85 121.15 78.1L121.05 80.2C121.05 80.45 120.85 80.6 120.6 80.6L119 80.5C118.75 80.5 118.6 80.3 118.6 80.05L118.85 75.1C118.85 74.85 119.05 74.7 119.3 74.7L138.95 75.8Z" fill="#171C8F"/>
<path d="M134 87.1001C136.55 87.8001 137.8 89.6501 137.2 92.0001C136.55 94.3501 134.55 95.3501 132 94.6501L129.85 94.0501C129.6 94.0001 129.5 93.8001 129.55 93.5501L130.1 91.5501C130.15 91.3001 130.35 91.2001 130.6 91.2501L132.15 91.6501C133.7 92.0501 134.4 92.0501 134.6 91.2501C134.85 90.4001 134.2 90.0501 132.7 89.6501L122.3 86.8501C120.75 86.4501 120.05 86.4001 119.85 87.2501C119.65 88.0501 120.25 88.4501 121.75 88.8501L123.3 89.2501C123.55 89.3001 123.65 89.5001 123.6 89.7501L123.05 91.7501C123 92.0001 122.8 92.1001 122.55 92.0501L120.4 91.45C117.85 90.75 116.6 88.9001 117.2 86.5501C117.85 84.2001 119.85 83.2001 122.4 83.9001L134 87.1001Z" fill="#171C8F"/>
<path d="M133.55 100.9C133.75 101 133.85 101.25 133.75 101.45L131.05 106.8C130.95 107 130.75 107.1 130.5 107L128.8 106.15C128.6 106.05 128.5 105.8 128.6 105.6L129.15 104.55C129.25 104.35 129.2 104.1 128.95 104L113.8 96.3C113.6 96.2 113.5 96 113.6 95.75L114.55 93.9C114.65 93.7 114.9 93.6 115.1 93.7L130.25 101.4C130.45 101.5 130.7 101.45 130.8 101.2L131.3 100.2C131.4 100 131.6 99.9 131.85 100L133.55 100.9Z" fill="#171C8F"/>
<path d="M124.35 109.55C126.4 111.2 126.8 113.4 125.3 115.3C123.8 117.2 121.55 117.3 119.45 115.65L110 108.1C107.95 106.45 107.55 104.25 109.05 102.35C110.55 100.45 112.8 100.35 114.9 102L124.35 109.55ZM111.2 104.05C110.65 104.75 111.1 105.3 112.3 106.3L120.7 113.05C121.95 114.05 122.55 114.35 123.1 113.65C123.65 112.95 123.2 112.4 122 111.4L113.6 104.65C112.4 103.65 111.75 103.35 111.2 104.05Z" fill="#171C8F"/>
<path d="M105.2 107.55L117.4 123C117.55 123.2 117.55 123.4 117.35 123.6L114.6 125.75C112.8 127.15 110.5 126.85 108.85 124.75L106.6 121.9C105.7 120.75 105.4 119.7 105.5 118.6C105.5 118.45 105.5 118.25 105.3 118.1L99.25 112.45C98.95 112.15 98.95 111.95 99.15 111.8L100.7 110.55C100.9 110.4 101.1 110.35 101.4 110.65L106.7 115.75C106.85 115.95 107.1 115.95 107.3 115.8L107.45 115.65C107.65 115.5 107.65 115.25 107.5 115.05L102.9 109.25C102.75 109.05 102.75 108.85 102.95 108.65L104.55 107.4C104.8 107.3 105.05 107.35 105.2 107.55ZM108.65 118.25C108.05 118.7 108.25 119.45 109.25 120.7L110.65 122.5C111.65 123.75 112.3 124.1 112.85 123.65L113.35 123.25C113.55 123.1 113.55 122.85 113.4 122.65L109.65 117.95C109.5 117.75 109.25 117.75 109.05 117.9L108.65 118.25Z" fill="#171C8F"/>
<path d="M95.7 114.15L98.75 120.4C98.8 120.5 98.85 120.6 98.95 120.7L106.55 130.8C106.7 131 106.65 131.2 106.45 131.3L104.5 132.25C104.35 132.35 104.1 132.25 104 132.05L99.95 125.85C99.85 125.75 99.65 125.85 99.7 125.95L102.05 132.95C102.15 133.2 102.05 133.4 101.9 133.5L99.95 134.45C99.75 134.55 99.55 134.45 99.5 134.2L96.3 122C96.3 121.9 96.2 121.75 96.15 121.65L93.1 115.4C93 115.2 93.05 114.95 93.3 114.85L95.25 113.9C95.35 113.85 95.55 113.95 95.7 114.15Z" fill="#171C8F"/>
<path d="M79.5 66.05L77.3 68.1L83.6 74.55H60.8V77.55H83.6L77.3 84.05L79.5 86.1L89.2 76.05L79.5 66.05Z" fill="#171C8F"/>
</svg>
